<svg width="64" height="64" viewBox="0 0 64 64" fill="none" xmlns="http://www.w3.org/2000/svg">
  <!-- Dog silhouette -->
  <path d="M32 12C26 12 22 16 22 22V26C22 28 23 30 25 31L27 42C27 45 29 47 32 47C35 47 37 45 37 42L39 31C41 30 42 28 42 26V22C42 16 38 12 32 12Z" fill="#111111"/>
  <!-- Ears -->
  <ellipse cx="26" cy="18" rx="3" ry="6" fill="#111111"/>
  <ellipse cx="38" cy="18" rx="3" ry="6" fill="#111111"/>
  <!-- Medical cross -->
  <rect x="30" y="20" width="4" height="12" fill="#ffffff"/>
  <rect x="26" y="24" width="12" height="4" fill="#ffffff"/>
</svg>